<?xml version="1.0" encoding="UTF-8" standalone="no"?>
<!DOCTYPE svg PUBLIC "-//W3C//DTD SVG 1.1//EN" "http://www.w3.org/Graphics/SVG/1.1/DTD/svg11.dtd">
<svg xmlns="http://www.w3.org/2000/svg" version="1.1" viewBox="0.00 0.00 1010.00 378.00">
<g stroke-width="2.00" fill="none" stroke-linecap="butt">
<path stroke="#42624a" vector-effect="non-scaling-stroke" d="
  M 635.08 247.93
  C 635.89 247.38 636.85 247.22 637.48 246.51
  C 639.54 244.20 642.15 242.92 644.30 240.72
  Q 655.51 229.25 660.96 215.20
  C 661.34 214.21 661.19 213.35 661.77 212.38
  Q 662.26 211.56 662.52 210.56
  Q 668.53 187.54 661.48 166.70
  Q 655.24 148.25 639.50 135.35
  C 636.47 132.87 633.38 131.16 630.26 128.96
  C 627.14 126.77 623.54 125.93 620.25 124.10
  C 618.48 123.12 616.48 122.99 614.59 122.32
  Q 610.37 120.83 606.45 120.13
  C 584.11 116.10 560.43 119.32 542.01 132.34
  Q 526.54 143.28 518.43 160.05
  C 517.32 162.33 516.67 164.77 515.87 167.13
  Q 514.76 170.38 514.30 172.47
  Q 510.11 191.39 514.92 210.28
  Q 515.39 212.12 516.71 215.62
  Q 517.69 218.24 519.06 220.72
  C 520.50 223.34 521.60 226.04 523.27 228.53
  Q 531.14 240.24 541.67 247.56
  Q 558.15 259.02 578.97 261.07
  Q 592.33 262.39 605.36 260.15
  C 609.85 259.38 614.60 258.03 618.90 256.46
  Q 626.73 253.59 635.08 247.93"
/>
<path stroke="#34543d" vector-effect="non-scaling-stroke" d="
  M 140.49 227.25
  L 140.50 191.75
  Q 140.50 191.25 140.00 191.25
  L 102.25 191.25
  A 0.75 0.75 0.0 0 0 101.50 192.00
  L 101.50 258.71
  A 0.25 0.25 0.0 0 0 101.75 258.96
  Q 133.75 259.09 166.65 258.92
  Q 182.48 258.84 196.77 254.33
  Q 202.35 252.57 210.37 248.63
  A 1.09 1.04 -89.4 0 0 210.85 248.14
  Q 211.11 247.59 211.68 247.53
  Q 212.21 247.47 212.66 247.19
  Q 219.32 242.99 223.33 239.19
  Q 226.84 235.88 230.26 231.52
  Q 233.06 227.96 235.33 223.91
  Q 237.76 219.58 238.98 215.72
  Q 239.39 214.42 239.95 213.18
  Q 240.58 211.81 240.93 210.41
  Q 244.70 195.21 243.02 181.17
  Q 241.00 164.36 233.23 152.72
  Q 220.32 133.36 197.19 125.87
  Q 183.02 121.27 166.38 121.14
  Q 134.89 120.88 101.76 121.04
  A 0.26 0.26 0.0 0 0 101.50 121.30
  L 101.49 151.75
  Q 101.49 152.26 102.00 152.26
  Q 132.80 152.23 165.18 152.26
  C 167.41 152.26 169.44 152.59 171.63 152.72
  Q 173.97 152.85 176.56 153.50
  Q 180.15 154.40 183.08 155.65
  C 199.86 162.83 205.93 179.50 203.71 197.15
  C 203.43 199.41 202.63 201.30 202.16 203.50
  Q 201.66 205.81 200.49 208.02
  Q 197.33 214.02 192.53 218.53
  C 191.41 219.58 190.21 220.02 189.16 220.99
  C 187.48 222.53 184.98 223.24 182.93 224.29
  Q 180.90 225.33 179.24 225.80
  Q 172.30 227.75 164.57 227.74
  Q 153.11 227.73 141.03 227.78
  Q 140.49 227.78 140.49 227.25"
/>
<path stroke="#395942" vector-effect="non-scaling-stroke" d="
  M 372.77 151.25
  A 0.48 0.48 0.0 0 0 373.25 150.77
  L 373.25 121.48
  A 0.48 0.48 0.0 0 0 372.77 121.00
  L 264.48 121.00
  A 0.48 0.48 0.0 0 0 264.00 121.48
  L 264.00 150.77
  A 0.48 0.48 0.0 0 0 264.48 151.25
  L 372.77 151.25"
/>
<path stroke="#42624a" vector-effect="non-scaling-stroke" d="
  M 464.74 152.32
  A 0.33 0.33 0.0 0 1 465.07 151.99
  L 506.41 151.99
  A 0.33 0.33 0.0 0 0 506.74 151.66
  L 506.74 121.34
  A 0.33 0.33 0.0 0 0 506.41 121.01
  L 383.59 121.01
  A 0.33 0.33 0.0 0 0 383.26 121.34
  L 383.26 151.66
  A 0.33 0.33 0.0 0 0 383.59 151.99
  L 425.43 151.99
  A 0.33 0.33 0.0 0 1 425.76 152.32
  L 425.76 258.66
  A 0.33 0.33 0.0 0 0 426.09 258.99
  L 464.41 258.99
  A 0.33 0.33 0.0 0 0 464.74 258.66
  L 464.74 152.32"
/>
<path stroke="#47674f" vector-effect="non-scaling-stroke" d="
  M 713.08 121.13
  A 0.30 0.30 0.0 0 0 712.83 121.00
  L 669.64 121.00
  A 0.30 0.30 0.0 0 0 669.39 121.47
  L 699.43 164.09
  A 0.30 0.30 0.0 0 0 699.91 164.10
  L 722.72 135.89
  A 0.30 0.30 0.0 0 0 722.74 135.54
  L 713.08 121.13"
/>
<path stroke="#47674f" vector-effect="non-scaling-stroke" d="
  M 875.93 175.62
  L 843.69 121.70
  A 1.45 1.44 -15.4 0 0 842.45 121.00
  L 768.69 121.00
  A 1.64 1.64 0.0 0 0 767.37 121.67
  L 667.22 258.59
  A 0.26 0.26 0.0 0 0 667.43 259.00
  L 710.75 259.00
  Q 711.39 259.00 711.76 258.48
  L 805.09 127.80
  Q 805.72 126.92 806.28 127.85
  Q 829.95 167.62 852.95 205.89
  C 854.42 208.33 854.73 209.68 854.74 212.31
  Q 854.76 226.18 854.74 258.46
  Q 854.74 259.00 855.28 259.00
  L 893.25 259.00
  Q 893.75 259.00 893.75 258.50
  L 893.75 209.98
  A 1.90 1.87 -30.0 0 1 894.02 209.01
  L 946.35 121.33
  A 0.22 0.22 0.0 0 0 946.16 121.00
  L 909.17 121.00
  A 0.73 0.73 0.0 0 0 908.54 121.36
  L 876.10 175.62
  A 0.10 0.10 0.0 0 1 875.93 175.62"
/>
<path stroke="#395942" vector-effect="non-scaling-stroke" d="
  M 373.26 174.81
  A 0.31 0.31 0.0 0 0 372.95 174.50
  L 264.31 174.50
  A 0.31 0.31 0.0 0 0 264.00 174.81
  L 264.00 203.19
  A 0.31 0.31 0.0 0 0 264.31 203.50
  L 372.95 203.50
  A 0.31 0.31 0.0 0 0 373.26 203.19
  L 373.26 174.81"
/>
<path stroke="#47674f" vector-effect="non-scaling-stroke" d="
  M 768.20 258.78
  A 0.51 0.51 0.0 0 0 768.62 259.00
  L 812.12 259.00
  A 0.51 0.51 0.0 0 0 812.54 258.19
  L 780.96 214.38
  A 0.51 0.51 0.0 0 0 780.14 214.37
  L 757.92 243.07
  A 0.51 0.51 0.0 0 0 757.90 243.67
  L 768.20 258.78"
/>
<path stroke="#395942" vector-effect="non-scaling-stroke" d="
  M 373.24 229.13
  A 0.37 0.37 0.0 0 0 372.87 228.76
  L 264.37 228.76
  A 0.37 0.37 0.0 0 0 264.00 229.13
  L 264.00 258.63
  A 0.37 0.37 0.0 0 0 264.37 259.00
  L 372.87 259.00
  A 0.37 0.37 0.0 0 0 373.24 258.63
  L 373.24 229.13"
/>
<path stroke="#42624a" vector-effect="non-scaling-stroke" d="
  M 570.22 155.58
  Q 568.94 155.85 568.03 156.97
  C 567.23 157.96 565.90 157.96 565.05 158.89
  C 563.45 160.63 561.62 162.13 560.19 164.03
  Q 550.71 176.68 551.74 192.87
  Q 552.48 204.31 557.58 212.37
  Q 567.49 228.04 586.70 229.23
  Q 599.94 230.05 610.51 222.59
  C 615.24 219.25 619.82 213.56 622.07 208.65
  Q 626.98 197.97 625.64 184.45
  C 624.23 170.30 615.00 157.57 601.54 152.86
  Q 588.40 148.27 574.20 153.41
  Q 573.46 153.68 572.91 154.22
  Q 572.49 154.65 571.89 154.47
  A 0.65 0.65 0.0 0 0 571.17 154.74
  L 570.93 155.09
  A 1.17 1.14 -78.9 0 1 570.22 155.58"
/>
</g>
<path fill="#1e1e1e" d="
  M 0.00 0.00
  L 1010.00 0.00
  L 1010.00 378.00
  L 0.00 378.00
  L 0.00 0.00
  Z
  M 635.08 247.93
  C 635.89 247.38 636.85 247.22 637.48 246.51
  C 639.54 244.20 642.15 242.92 644.30 240.72
  Q 655.51 229.25 660.96 215.20
  C 661.34 214.21 661.19 213.35 661.77 212.38
  Q 662.26 211.56 662.52 210.56
  Q 668.53 187.54 661.48 166.70
  Q 655.24 148.25 639.50 135.35
  C 636.47 132.87 633.38 131.16 630.26 128.96
  C 627.14 126.77 623.54 125.93 620.25 124.10
  C 618.48 123.12 616.48 122.99 614.59 122.32
  Q 610.37 120.83 606.45 120.13
  C 584.11 116.10 560.43 119.32 542.01 132.34
  Q 526.54 143.28 518.43 160.05
  C 517.32 162.33 516.67 164.77 515.87 167.13
  Q 514.76 170.38 514.30 172.47
  Q 510.11 191.39 514.92 210.28
  Q 515.39 212.12 516.71 215.62
  Q 517.69 218.24 519.06 220.72
  C 520.50 223.34 521.60 226.04 523.27 228.53
  Q 531.14 240.24 541.67 247.56
  Q 558.15 259.02 578.97 261.07
  Q 592.33 262.39 605.36 260.15
  C 609.85 259.38 614.60 258.03 618.90 256.46
  Q 626.73 253.59 635.08 247.93
  Z
  M 140.49 227.25
  L 140.50 191.75
  Q 140.50 191.25 140.00 191.25
  L 102.25 191.25
  A 0.75 0.75 0.0 0 0 101.50 192.00
  L 101.50 258.71
  A 0.25 0.25 0.0 0 0 101.75 258.96
  Q 133.75 259.09 166.65 258.92
  Q 182.48 258.84 196.77 254.33
  Q 202.35 252.57 210.37 248.63
  A 1.09 1.04 -89.4 0 0 210.85 248.14
  Q 211.11 247.59 211.68 247.53
  Q 212.21 247.47 212.66 247.19
  Q 219.32 242.99 223.33 239.19
  Q 226.84 235.88 230.26 231.52
  Q 233.06 227.96 235.33 223.91
  Q 237.76 219.58 238.98 215.72
  Q 239.39 214.42 239.95 213.18
  Q 240.58 211.81 240.93 210.41
  Q 244.70 195.21 243.02 181.17
  Q 241.00 164.36 233.23 152.72
  Q 220.32 133.36 197.19 125.87
  Q 183.02 121.27 166.38 121.14
  Q 134.89 120.88 101.76 121.04
  A 0.26 0.26 0.0 0 0 101.50 121.30
  L 101.49 151.75
  Q 101.49 152.26 102.00 152.26
  Q 132.80 152.23 165.18 152.26
  C 167.41 152.26 169.44 152.59 171.63 152.72
  Q 173.97 152.85 176.56 153.50
  Q 180.15 154.40 183.08 155.65
  C 199.86 162.83 205.93 179.50 203.71 197.15
  C 203.43 199.41 202.63 201.30 202.16 203.50
  Q 201.66 205.81 200.49 208.02
  Q 197.33 214.02 192.53 218.53
  C 191.41 219.58 190.21 220.02 189.16 220.99
  C 187.48 222.53 184.98 223.24 182.93 224.29
  Q 180.90 225.33 179.24 225.80
  Q 172.30 227.75 164.57 227.74
  Q 153.11 227.73 141.03 227.78
  Q 140.49 227.78 140.49 227.25
  Z
  M 372.77 151.25
  A 0.48 0.48 0.0 0 0 373.25 150.77
  L 373.25 121.48
  A 0.48 0.48 0.0 0 0 372.77 121.00
  L 264.48 121.00
  A 0.48 0.48 0.0 0 0 264.00 121.48
  L 264.00 150.77
  A 0.48 0.48 0.0 0 0 264.48 151.25
  L 372.77 151.25
  Z
  M 464.74 152.32
  A 0.33 0.33 0.0 0 1 465.07 151.99
  L 506.41 151.99
  A 0.33 0.33 0.0 0 0 506.74 151.66
  L 506.74 121.34
  A 0.33 0.33 0.0 0 0 506.41 121.01
  L 383.59 121.01
  A 0.33 0.33 0.0 0 0 383.26 121.34
  L 383.26 151.66
  A 0.33 0.33 0.0 0 0 383.59 151.99
  L 425.43 151.99
  A 0.33 0.33 0.0 0 1 425.76 152.32
  L 425.76 258.66
  A 0.33 0.33 0.0 0 0 426.09 258.99
  L 464.41 258.99
  A 0.33 0.33 0.0 0 0 464.74 258.66
  L 464.74 152.32
  Z
  M 713.08 121.13
  A 0.30 0.30 0.0 0 0 712.83 121.00
  L 669.64 121.00
  A 0.30 0.30 0.0 0 0 669.39 121.47
  L 699.43 164.09
  A 0.30 0.30 0.0 0 0 699.91 164.10
  L 722.72 135.89
  A 0.30 0.30 0.0 0 0 722.74 135.54
  L 713.08 121.13
  Z
  M 875.93 175.62
  L 843.69 121.70
  A 1.45 1.44 -15.4 0 0 842.45 121.00
  L 768.69 121.00
  A 1.64 1.64 0.0 0 0 767.37 121.67
  L 667.22 258.59
  A 0.26 0.26 0.0 0 0 667.43 259.00
  L 710.75 259.00
  Q 711.39 259.00 711.76 258.48
  L 805.09 127.80
  Q 805.72 126.92 806.28 127.85
  Q 829.95 167.62 852.95 205.89
  C 854.42 208.33 854.73 209.68 854.74 212.31
  Q 854.76 226.18 854.74 258.46
  Q 854.74 259.00 855.28 259.00
  L 893.25 259.00
  Q 893.75 259.00 893.75 258.50
  L 893.75 209.98
  A 1.90 1.87 -30.0 0 1 894.02 209.01
  L 946.35 121.33
  A 0.22 0.22 0.0 0 0 946.16 121.00
  L 909.17 121.00
  A 0.73 0.73 0.0 0 0 908.54 121.36
  L 876.10 175.62
  A 0.10 0.10 0.0 0 1 875.93 175.62
  Z
  M 373.26 174.81
  A 0.31 0.31 0.0 0 0 372.95 174.50
  L 264.31 174.50
  A 0.31 0.31 0.0 0 0 264.00 174.81
  L 264.00 203.19
  A 0.31 0.31 0.0 0 0 264.31 203.50
  L 372.95 203.50
  A 0.31 0.31 0.0 0 0 373.26 203.19
  L 373.26 174.81
  Z
  M 768.20 258.78
  A 0.51 0.51 0.0 0 0 768.62 259.00
  L 812.12 259.00
  A 0.51 0.51 0.0 0 0 812.54 258.19
  L 780.96 214.38
  A 0.51 0.51 0.0 0 0 780.14 214.37
  L 757.92 243.07
  A 0.51 0.51 0.0 0 0 757.90 243.67
  L 768.20 258.78
  Z
  M 373.24 229.13
  A 0.37 0.37 0.0 0 0 372.87 228.76
  L 264.37 228.76
  A 0.37 0.37 0.0 0 0 264.00 229.13
  L 264.00 258.63
  A 0.37 0.37 0.0 0 0 264.37 259.00
  L 372.87 259.00
  A 0.37 0.37 0.0 0 0 373.24 258.63
  L 373.24 229.13
  Z"
/>
<path fill="#65a676" d="
  M 635.08 247.93
  Q 626.73 253.59 618.90 256.46
  C 614.60 258.03 609.85 259.38 605.36 260.15
  Q 592.33 262.39 578.97 261.07
  Q 558.15 259.02 541.67 247.56
  Q 531.14 240.24 523.27 228.53
  C 521.60 226.04 520.50 223.34 519.06 220.72
  Q 517.69 218.24 516.71 215.62
  Q 515.39 212.12 514.92 210.28
  Q 510.11 191.39 514.30 172.47
  Q 514.76 170.38 515.87 167.13
  C 516.67 164.77 517.32 162.33 518.43 160.05
  Q 526.54 143.28 542.01 132.34
  C 560.43 119.32 584.11 116.10 606.45 120.13
  Q 610.37 120.83 614.59 122.32
  C 616.48 122.99 618.48 123.12 620.25 124.10
  C 623.54 125.93 627.14 126.77 630.26 128.96
  C 633.38 131.16 636.47 132.87 639.50 135.35
  Q 655.24 148.25 661.48 166.70
  Q 668.53 187.54 662.52 210.56
  Q 662.26 211.56 661.77 212.38
  C 661.19 213.35 661.34 214.21 660.96 215.20
  Q 655.51 229.25 644.30 240.72
  C 642.15 242.92 639.54 244.20 637.48 246.51
  C 636.85 247.22 635.89 247.38 635.08 247.93
  Z
  M 570.22 155.58
  Q 568.94 155.85 568.03 156.97
  C 567.23 157.96 565.90 157.96 565.05 158.89
  C 563.45 160.63 561.62 162.13 560.19 164.03
  Q 550.71 176.68 551.74 192.87
  Q 552.48 204.31 557.58 212.37
  Q 567.49 228.04 586.70 229.23
  Q 599.94 230.05 610.51 222.59
  C 615.24 219.25 619.82 213.56 622.07 208.65
  Q 626.98 197.97 625.64 184.45
  C 624.23 170.30 615.00 157.57 601.54 152.86
  Q 588.40 148.27 574.20 153.41
  Q 573.46 153.68 572.91 154.22
  Q 572.49 154.65 571.89 154.47
  A 0.65 0.65 0.0 0 0 571.17 154.74
  L 570.93 155.09
  A 1.17 1.14 -78.9 0 1 570.22 155.58
  Z"
/>
<path fill="#4a895c" d="
  M 141.03 227.78
  Q 153.11 227.73 164.57 227.74
  Q 172.30 227.75 179.24 225.80
  Q 180.90 225.33 182.93 224.29
  C 184.98 223.24 187.48 222.53 189.16 220.99
  C 190.21 220.02 191.41 219.58 192.53 218.53
  Q 197.33 214.02 200.49 208.02
  Q 201.66 205.81 202.16 203.50
  C 202.63 201.30 203.43 199.41 203.71 197.15
  C 205.93 179.50 199.86 162.83 183.08 155.65
  Q 180.15 154.40 176.56 153.50
  Q 173.97 152.85 171.63 152.72
  C 169.44 152.59 167.41 152.26 165.18 152.26
  Q 132.80 152.23 102.00 152.26
  Q 101.49 152.26 101.49 151.75
  L 101.50 121.30
  A 0.26 0.26 0.0 0 1 101.76 121.04
  Q 134.89 120.88 166.38 121.14
  Q 183.02 121.27 197.19 125.87
  Q 220.32 133.36 233.23 152.72
  Q 241.00 164.36 243.02 181.17
  Q 244.70 195.21 240.93 210.41
  Q 240.58 211.81 239.95 213.18
  Q 239.39 214.42 238.98 215.72
  Q 237.76 219.58 235.33 223.91
  Q 233.06 227.96 230.26 231.52
  Q 226.84 235.88 223.33 239.19
  Q 219.32 242.99 212.66 247.19
  Q 212.21 247.47 211.68 247.53
  Q 211.11 247.59 210.85 248.14
  A 1.09 1.04 -89.4 0 1 210.37 248.63
  Q 202.35 252.57 196.77 254.33
  Q 182.48 258.84 166.65 258.92
  Q 133.75 259.09 101.75 258.96
  A 0.25 0.25 0.0 0 1 101.50 258.71
  L 101.50 192.00
  A 0.75 0.75 0.0 0 1 102.25 191.25
  L 140.00 191.25
  Q 140.50 191.25 140.50 191.75
  L 140.49 227.25
  Q 140.49 227.78 141.03 227.78
  Z"
/>
<path fill="#539365" d="
  M 372.77 151.25
  L 264.48 151.25
  A 0.48 0.48 0.0 0 1 264.00 150.77
  L 264.00 121.48
  A 0.48 0.48 0.0 0 1 264.48 121.00
  L 372.77 121.00
  A 0.48 0.48 0.0 0 1 373.25 121.48
  L 373.25 150.77
  A 0.48 0.48 0.0 0 1 372.77 151.25
  Z"
/>
<path fill="#65a676" d="
  M 464.74 152.32
  L 464.74 258.66
  A 0.33 0.33 0.0 0 1 464.41 258.99
  L 426.09 258.99
  A 0.33 0.33 0.0 0 1 425.76 258.66
  L 425.76 152.32
  A 0.33 0.33 0.0 0 0 425.43 151.99
  L 383.59 151.99
  A 0.33 0.33 0.0 0 1 383.26 151.66
  L 383.26 121.34
  A 0.33 0.33 0.0 0 1 383.59 121.01
  L 506.41 121.01
  A 0.33 0.33 0.0 0 1 506.74 121.34
  L 506.74 151.66
  A 0.33 0.33 0.0 0 1 506.41 151.99
  L 465.07 151.99
  A 0.33 0.33 0.0 0 0 464.74 152.32
  Z"
/>
<path fill="#6fb080" d="
  M 713.08 121.13
  L 722.74 135.54
  A 0.30 0.30 0.0 0 1 722.72 135.89
  L 699.91 164.10
  A 0.30 0.30 0.0 0 1 699.43 164.09
  L 669.39 121.47
  A 0.30 0.30 0.0 0 1 669.64 121.00
  L 712.83 121.00
  A 0.30 0.30 0.0 0 1 713.08 121.13
  Z"
/>
<path fill="#6fb080" d="
  M 875.93 175.62
  A 0.10 0.10 0.0 0 0 876.10 175.62
  L 908.54 121.36
  A 0.73 0.73 0.0 0 1 909.17 121.00
  L 946.16 121.00
  A 0.22 0.22 0.0 0 1 946.35 121.33
  L 894.02 209.01
  A 1.90 1.87 -30.0 0 0 893.75 209.98
  L 893.75 258.50
  Q 893.75 259.00 893.25 259.00
  L 855.28 259.00
  Q 854.74 259.00 854.74 258.46
  Q 854.76 226.18 854.74 212.31
  C 854.73 209.68 854.42 208.33 852.95 205.89
  Q 829.95 167.62 806.28 127.85
  Q 805.72 126.92 805.09 127.80
  L 711.76 258.48
  Q 711.39 259.00 710.75 259.00
  L 667.43 259.00
  A 0.26 0.26 0.0 0 1 667.22 258.59
  L 767.37 121.67
  A 1.64 1.64 0.0 0 1 768.69 121.00
  L 842.45 121.00
  A 1.45 1.44 -15.4 0 1 843.69 121.70
  L 875.93 175.62
  Z"
/>
<path fill="#1e1e1e" d="
  M 570.93 155.09
  L 571.17 154.74
  A 0.65 0.65 0.0 0 1 571.89 154.47
  Q 572.49 154.65 572.91 154.22
  Q 573.46 153.68 574.20 153.41
  Q 588.40 148.27 601.54 152.86
  C 615.00 157.57 624.23 170.30 625.64 184.45
  Q 626.98 197.97 622.07 208.65
  C 619.82 213.56 615.24 219.25 610.51 222.59
  Q 599.94 230.05 586.70 229.23
  Q 567.49 228.04 557.58 212.37
  Q 552.48 204.31 551.74 192.87
  Q 550.71 176.68 560.19 164.03
  C 561.62 162.13 563.45 160.63 565.05 158.89
  C 565.90 157.96 567.23 157.96 568.03 156.97
  Q 568.94 155.85 570.22 155.58
  A 1.17 1.14 -78.9 0 0 570.93 155.09
  Z"
/>
<rect fill="#539365" x="264.00" y="174.50" width="109.26" height="29.00" rx="0.31"/>
<path fill="#6fb080" d="
  M 768.20 258.78
  L 757.90 243.67
  A 0.51 0.51 0.0 0 1 757.92 243.07
  L 780.14 214.37
  A 0.51 0.51 0.0 0 1 780.96 214.38
  L 812.54 258.19
  A 0.51 0.51 0.0 0 1 812.12 259.00
  L 768.62 259.00
  A 0.51 0.51 0.0 0 1 768.20 258.78
  Z"
/>
<rect fill="#539365" x="264.00" y="228.76" width="109.24" height="30.24" rx="0.37"/>
</svg>
