<?xml version="1.0" encoding="UTF-8" standalone="no"?>
<!DOCTYPE svg PUBLIC "-//W3C//DTD SVG 1.1//EN" "http://www.w3.org/Graphics/SVG/1.1/DTD/svg11.dtd">
<svg xmlns="http://www.w3.org/2000/svg" version="1.1" viewBox="0.00 0.00 803.00 331.00">
<g stroke-width="2.00" fill="none" stroke-linecap="butt">
<path stroke="#8fc6f6" vector-effect="non-scaling-stroke" d="
  M 106.41 199.55
  Q 105.87 199.54 105.87 199.01
  L 105.87 108.56
  A 0.31 0.31 0.0 0 0 105.56 108.25
  L 88.00 108.25
  A 0.26 0.25 -90.0 0 0 87.75 108.51
  L 87.75 215.23
  Q 87.75 215.70 88.22 215.70
  Q 111.48 215.79 134.75 215.80
  C 150.59 215.81 164.83 212.77 178.20 203.94
  C 204.95 186.27 210.81 148.80 202.62 120.04
  C 197.47 101.94 186.53 87.91 169.45 79.85
  C 158.92 74.89 147.86 73.23 136.00 73.18
  Q 112.15 73.08 88.28 73.23
  Q 87.75 73.23 87.75 73.76
  L 87.75 88.73
  A 0.43 0.42 -0.0 0 0 88.18 89.15
  Q 112.59 89.07 137.00 89.18
  C 160.32 89.28 179.37 102.22 185.16 125.01
  C 192.52 153.99 184.03 190.49 150.64 198.13
  Q 144.50 199.53 130.75 199.64
  Q 118.50 199.73 106.41 199.55"
/>
<path stroke="#8fc6f6" vector-effect="non-scaling-stroke" d="
  M 351.64 125.16
  Q 351.56 160.07 351.68 195.01
  Q 351.72 206.98 360.03 212.77
  C 371.34 220.66 388.99 216.41 400.24 210.80
  A 0.83 0.83 0.0 0 0 400.67 209.82
  L 396.87 197.01
  A 0.51 0.51 0.0 0 0 396.13 196.71
  Q 389.38 200.66 381.52 200.77
  C 374.89 200.87 369.37 196.83 369.37 189.81
  Q 369.38 157.81 369.38 125.36
  A 0.61 0.61 0.0 0 1 369.99 124.75
  L 392.53 124.75
  A 0.36 0.36 0.0 0 0 392.89 124.39
  L 392.87 111.24
  Q 392.87 110.87 392.49 110.87
  L 369.70 110.85
  A 0.32 0.32 0.0 0 1 369.38 110.53
  L 369.38 76.37
  Q 369.38 75.87 368.87 75.87
  L 352.08 75.87
  A 0.45 0.45 0.0 0 0 351.63 76.31
  L 351.60 110.24
  A 0.59 0.59 0.0 0 1 351.01 110.83
  L 338.00 110.88
  A 0.63 0.62 -0.5 0 0 337.38 111.50
  L 337.36 124.31
  A 0.45 0.44 -0.0 0 0 337.81 124.75
  L 351.23 124.75
  Q 351.64 124.74 351.64 125.16"
/>
<path stroke="#8fc6f6" vector-effect="non-scaling-stroke" d="
  M 240.93 169.40
  A 0.44 0.43 20.3 0 1 241.26 169.25
  L 327.00 169.25
  Q 327.50 169.25 327.57 168.75
  Q 328.11 164.88 327.89 161.02
  Q 326.28 131.56 303.05 116.90
  C 283.67 104.66 257.79 107.19 240.72 121.61
  C 215.16 143.18 215.99 184.74 241.12 205.69
  C 252.92 215.52 266.99 218.97 282.23 217.17
  C 298.20 215.29 314.04 206.59 320.77 191.61
  Q 320.98 191.14 320.49 191.01
  L 306.44 187.15
  Q 305.87 186.99 305.61 187.51
  C 300.08 198.68 287.97 204.36 275.75 204.45
  C 256.93 204.59 242.49 188.52 240.69 170.25
  Q 240.64 169.74 240.93 169.40"
/>
<path stroke="#8fc6f6" vector-effect="non-scaling-stroke" d="
  M 461.2547 217.9893
  A 54.48 53.02 90.3 0 0 514.5593 163.7876
  A 54.48 53.02 90.3 0 0 461.8253 109.0307
  A 54.48 53.02 90.3 0 0 408.5207 163.2324
  A 54.48 53.02 90.3 0 0 461.2547 217.9893"
/>
<path stroke="#8fc6f6" vector-effect="non-scaling-stroke" d="
  M 568.74 175.10
  L 598.82 215.32
  Q 599.14 215.75 599.67 215.75
  L 617.25 215.75
  A 0.31 0.31 0.0 0 0 617.50 215.25
  L 578.84 164.02
  Q 578.44 163.49 578.84 162.96
  L 617.08 111.57
  Q 617.61 110.87 616.73 110.87
  L 599.64 110.85
  A 1.48 1.47 18.2 0 0 598.46 111.44
  Q 584.60 130.32 570.70 148.98
  C 570.00 149.92 569.49 151.09 568.84 152.12
  A 0.39 0.39 0.0 0 1 568.14 152.03
  Q 567.47 149.94 566.12 148.13
  Q 552.33 129.71 538.69 111.44
  A 1.43 1.43 0.0 0 0 537.54 110.86
  L 520.46 110.86
  A 0.33 0.33 0.0 0 0 520.19 111.39
  L 558.63 163.03
  A 0.81 0.80 -44.7 0 1 558.62 163.99
  L 519.83 215.35
  A 0.25 0.25 0.0 0 0 520.03 215.75
  L 537.74 215.75
  A 1.07 1.05 -71.0 0 0 538.58 215.33
  C 548.51 202.03 559.09 188.89 568.21 175.12
  Q 568.46 174.73 568.74 175.10"
/>
<path stroke="#8fc6f6" vector-effect="non-scaling-stroke" d="
  M 676.31 198.73
  L 641.19 111.14
  Q 641.08 110.87 640.80 110.87
  L 623.49 110.86
  A 0.48 0.47 -11.4 0 0 623.05 111.52
  L 666.89 215.10
  A 1.39 1.36 -47.3 0 1 666.92 216.10
  Q 663.65 225.35 659.63 234.28
  C 657.74 238.50 654.35 244.88 650.01 244.99
  Q 644.84 245.12 639.94 244.28
  A 0.48 0.48 0.0 0 0 639.38 244.75
  L 639.37 259.52
  A 0.48 0.46 7.2 0 0 639.73 259.97
  Q 649.08 262.12 657.91 259.49
  C 668.86 256.24 673.53 247.72 677.35 237.79
  Q 701.68 174.52 726.02 111.25
  Q 726.18 110.84 725.74 110.84
  L 710.02 110.86
  A 0.96 0.96 0.0 0 0 709.12 111.49
  L 677.22 198.71
  Q 676.78 199.90 676.31 198.73"
/>
<path stroke="#8fc6f6" vector-effect="non-scaling-stroke" d="
  M 307.48 142.98
  Q 303.83 135.27 299.84 131.92
  C 292.62 125.85 284.65 122.35 275.45 122.42
  C 256.10 122.57 242.13 136.87 240.38 155.82
  Q 240.34 156.25 240.77 156.25
  L 310.95 156.25
  A 0.30 0.30 0.0 0 0 311.25 155.91
  Q 310.41 149.19 307.48 142.98"
/>
<path stroke="#8fc6f6" vector-effect="non-scaling-stroke" d="
  M 461.1218 202.4379
  A 38.98 34.80 90.6 0 0 496.3281 163.8244
  A 38.98 34.80 90.6 0 0 461.9382 124.4821
  A 38.98 34.80 90.6 0 0 426.7319 163.0956
  A 38.98 34.80 90.6 0 0 461.1218 202.4379"
/>
</g>
<path fill="#1f8ced" d="
  M 0.00 0.00
  L 803.00 0.00
  L 803.00 331.00
  L 0.00 331.00
  L 0.00 0.00
  Z
  M 106.41 199.55
  Q 105.87 199.54 105.87 199.01
  L 105.87 108.56
  A 0.31 0.31 0.0 0 0 105.56 108.25
  L 88.00 108.25
  A 0.26 0.25 -90.0 0 0 87.75 108.51
  L 87.75 215.23
  Q 87.75 215.70 88.22 215.70
  Q 111.48 215.79 134.75 215.80
  C 150.59 215.81 164.83 212.77 178.20 203.94
  C 204.95 186.27 210.81 148.80 202.62 120.04
  C 197.47 101.94 186.53 87.91 169.45 79.85
  C 158.92 74.89 147.86 73.23 136.00 73.18
  Q 112.15 73.08 88.28 73.23
  Q 87.75 73.23 87.75 73.76
  L 87.75 88.73
  A 0.43 0.42 -0.0 0 0 88.18 89.15
  Q 112.59 89.07 137.00 89.18
  C 160.32 89.28 179.37 102.22 185.16 125.01
  C 192.52 153.99 184.03 190.49 150.64 198.13
  Q 144.50 199.53 130.75 199.64
  Q 118.50 199.73 106.41 199.55
  Z
  M 351.64 125.16
  Q 351.56 160.07 351.68 195.01
  Q 351.72 206.98 360.03 212.77
  C 371.34 220.66 388.99 216.41 400.24 210.80
  A 0.83 0.83 0.0 0 0 400.67 209.82
  L 396.87 197.01
  A 0.51 0.51 0.0 0 0 396.13 196.71
  Q 389.38 200.66 381.52 200.77
  C 374.89 200.87 369.37 196.83 369.37 189.81
  Q 369.38 157.81 369.38 125.36
  A 0.61 0.61 0.0 0 1 369.99 124.75
  L 392.53 124.75
  A 0.36 0.36 0.0 0 0 392.89 124.39
  L 392.87 111.24
  Q 392.87 110.87 392.49 110.87
  L 369.70 110.85
  A 0.32 0.32 0.0 0 1 369.38 110.53
  L 369.38 76.37
  Q 369.38 75.87 368.87 75.87
  L 352.08 75.87
  A 0.45 0.45 0.0 0 0 351.63 76.31
  L 351.60 110.24
  A 0.59 0.59 0.0 0 1 351.01 110.83
  L 338.00 110.88
  A 0.63 0.62 -0.5 0 0 337.38 111.50
  L 337.36 124.31
  A 0.45 0.44 -0.0 0 0 337.81 124.75
  L 351.23 124.75
  Q 351.64 124.74 351.64 125.16
  Z
  M 240.93 169.40
  A 0.44 0.43 20.3 0 1 241.26 169.25
  L 327.00 169.25
  Q 327.50 169.25 327.57 168.75
  Q 328.11 164.88 327.89 161.02
  Q 326.28 131.56 303.05 116.90
  C 283.67 104.66 257.79 107.19 240.72 121.61
  C 215.16 143.18 215.99 184.74 241.12 205.69
  C 252.92 215.52 266.99 218.97 282.23 217.17
  C 298.20 215.29 314.04 206.59 320.77 191.61
  Q 320.98 191.14 320.49 191.01
  L 306.44 187.15
  Q 305.87 186.99 305.61 187.51
  C 300.08 198.68 287.97 204.36 275.75 204.45
  C 256.93 204.59 242.49 188.52 240.69 170.25
  Q 240.64 169.74 240.93 169.40
  Z
  M 461.2547 217.9893
  A 54.48 53.02 90.3 0 0 514.5593 163.7876
  A 54.48 53.02 90.3 0 0 461.8253 109.0307
  A 54.48 53.02 90.3 0 0 408.5207 163.2324
  A 54.48 53.02 90.3 0 0 461.2547 217.9893
  Z
  M 568.74 175.10
  L 598.82 215.32
  Q 599.14 215.75 599.67 215.75
  L 617.25 215.75
  A 0.31 0.31 0.0 0 0 617.50 215.25
  L 578.84 164.02
  Q 578.44 163.49 578.84 162.96
  L 617.08 111.57
  Q 617.61 110.87 616.73 110.87
  L 599.64 110.85
  A 1.48 1.47 18.2 0 0 598.46 111.44
  Q 584.60 130.32 570.70 148.98
  C 570.00 149.92 569.49 151.09 568.84 152.12
  A 0.39 0.39 0.0 0 1 568.14 152.03
  Q 567.47 149.94 566.12 148.13
  Q 552.33 129.71 538.69 111.44
  A 1.43 1.43 0.0 0 0 537.54 110.86
  L 520.46 110.86
  A 0.33 0.33 0.0 0 0 520.19 111.39
  L 558.63 163.03
  A 0.81 0.80 -44.7 0 1 558.62 163.99
  L 519.83 215.35
  A 0.25 0.25 0.0 0 0 520.03 215.75
  L 537.74 215.75
  A 1.07 1.05 -71.0 0 0 538.58 215.33
  C 548.51 202.03 559.09 188.89 568.21 175.12
  Q 568.46 174.73 568.74 175.10
  Z
  M 676.31 198.73
  L 641.19 111.14
  Q 641.08 110.87 640.80 110.87
  L 623.49 110.86
  A 0.48 0.47 -11.4 0 0 623.05 111.52
  L 666.89 215.10
  A 1.39 1.36 -47.3 0 1 666.92 216.10
  Q 663.65 225.35 659.63 234.28
  C 657.74 238.50 654.35 244.88 650.01 244.99
  Q 644.84 245.12 639.94 244.28
  A 0.48 0.48 0.0 0 0 639.38 244.75
  L 639.37 259.52
  A 0.48 0.46 7.2 0 0 639.73 259.97
  Q 649.08 262.12 657.91 259.49
  C 668.86 256.24 673.53 247.72 677.35 237.79
  Q 701.68 174.52 726.02 111.25
  Q 726.18 110.84 725.74 110.84
  L 710.02 110.86
  A 0.96 0.96 0.0 0 0 709.12 111.49
  L 677.22 198.71
  Q 676.78 199.90 676.31 198.73
  Z"
/>
<path fill="#ffffff" d="
  M 106.41 199.55
  Q 118.50 199.73 130.75 199.64
  Q 144.50 199.53 150.64 198.13
  C 184.03 190.49 192.52 153.99 185.16 125.01
  C 179.37 102.22 160.32 89.28 137.00 89.18
  Q 112.59 89.07 88.18 89.15
  A 0.43 0.42 -0.0 0 1 87.75 88.73
  L 87.75 73.76
  Q 87.75 73.23 88.28 73.23
  Q 112.15 73.08 136.00 73.18
  C 147.86 73.23 158.92 74.89 169.45 79.85
  C 186.53 87.91 197.47 101.94 202.62 120.04
  C 210.81 148.80 204.95 186.27 178.20 203.94
  C 164.83 212.77 150.59 215.81 134.75 215.80
  Q 111.48 215.79 88.22 215.70
  Q 87.75 215.70 87.75 215.23
  L 87.75 108.51
  A 0.26 0.25 90.0 0 1 88.00 108.25
  L 105.56 108.25
  A 0.31 0.31 0.0 0 1 105.87 108.56
  L 105.87 199.01
  Q 105.87 199.54 106.41 199.55
  Z"
/>
<path fill="#ffffff" d="
  M 351.23 124.75
  L 337.81 124.75
  A 0.45 0.44 0.0 0 1 337.36 124.31
  L 337.38 111.50
  A 0.63 0.62 -0.5 0 1 338.00 110.88
  L 351.01 110.83
  A 0.59 0.59 0.0 0 0 351.60 110.24
  L 351.63 76.31
  A 0.45 0.45 0.0 0 1 352.08 75.87
  L 368.87 75.87
  Q 369.38 75.87 369.38 76.37
  L 369.38 110.53
  A 0.32 0.32 0.0 0 0 369.70 110.85
  L 392.49 110.87
  Q 392.87 110.87 392.87 111.24
  L 392.89 124.39
  A 0.36 0.36 0.0 0 1 392.53 124.75
  L 369.99 124.75
  A 0.61 0.61 0.0 0 0 369.38 125.36
  Q 369.38 157.81 369.37 189.81
  C 369.37 196.83 374.89 200.87 381.52 200.77
  Q 389.38 200.66 396.13 196.71
  A 0.51 0.51 0.0 0 1 396.87 197.01
  L 400.67 209.82
  A 0.83 0.83 0.0 0 1 400.24 210.80
  C 388.99 216.41 371.34 220.66 360.03 212.77
  Q 351.72 206.98 351.68 195.01
  Q 351.56 160.07 351.64 125.16
  Q 351.64 124.74 351.23 124.75
  Z"
/>
<path fill="#ffffff" d="
  M 240.93 169.40
  Q 240.64 169.74 240.69 170.25
  C 242.49 188.52 256.93 204.59 275.75 204.45
  C 287.97 204.36 300.08 198.68 305.61 187.51
  Q 305.87 186.99 306.44 187.15
  L 320.49 191.01
  Q 320.98 191.14 320.77 191.61
  C 314.04 206.59 298.20 215.29 282.23 217.17
  C 266.99 218.97 252.92 215.52 241.12 205.69
  C 215.99 184.74 215.16 143.18 240.72 121.61
  C 257.79 107.19 283.67 104.66 303.05 116.90
  Q 326.28 131.56 327.89 161.02
  Q 328.11 164.88 327.57 168.75
  Q 327.50 169.25 327.00 169.25
  L 241.26 169.25
  A 0.44 0.43 20.3 0 0 240.93 169.40
  Z
  M 307.48 142.98
  Q 303.83 135.27 299.84 131.92
  C 292.62 125.85 284.65 122.35 275.45 122.42
  C 256.10 122.57 242.13 136.87 240.38 155.82
  Q 240.34 156.25 240.77 156.25
  L 310.95 156.25
  A 0.30 0.30 0.0 0 0 311.25 155.91
  Q 310.41 149.19 307.48 142.98
  Z"
/>
<path fill="#ffffff" d="
  M 461.2547 217.9893
  A 54.48 53.02 90.3 0 1 408.5207 163.2324
  A 54.48 53.02 90.3 0 1 461.8253 109.0307
  A 54.48 53.02 90.3 0 1 514.5593 163.7876
  A 54.48 53.02 90.3 0 1 461.2547 217.9893
  Z
  M 461.1218 202.4379
  A 38.98 34.80 90.6 0 0 496.3281 163.8244
  A 38.98 34.80 90.6 0 0 461.9382 124.4821
  A 38.98 34.80 90.6 0 0 426.7319 163.0956
  A 38.98 34.80 90.6 0 0 461.1218 202.4379
  Z"
/>
<path fill="#ffffff" d="
  M 568.21 175.12
  C 559.09 188.89 548.51 202.03 538.58 215.33
  A 1.07 1.05 -71.0 0 1 537.74 215.75
  L 520.03 215.75
  A 0.25 0.25 0.0 0 1 519.83 215.35
  L 558.62 163.99
  A 0.81 0.80 -44.7 0 0 558.63 163.03
  L 520.19 111.39
  A 0.33 0.33 0.0 0 1 520.46 110.86
  L 537.54 110.86
  A 1.43 1.43 0.0 0 1 538.69 111.44
  Q 552.33 129.71 566.12 148.13
  Q 567.47 149.94 568.14 152.03
  A 0.39 0.39 0.0 0 0 568.84 152.12
  C 569.49 151.09 570.00 149.92 570.70 148.98
  Q 584.60 130.32 598.46 111.44
  A 1.48 1.47 18.2 0 1 599.64 110.85
  L 616.73 110.87
  Q 617.61 110.87 617.08 111.57
  L 578.84 162.96
  Q 578.44 163.49 578.84 164.02
  L 617.50 215.25
  A 0.31 0.31 0.0 0 1 617.25 215.75
  L 599.67 215.75
  Q 599.14 215.75 598.82 215.32
  L 568.74 175.10
  Q 568.46 174.73 568.21 175.12
  Z"
/>
<path fill="#ffffff" d="
  M 676.31 198.73
  Q 676.78 199.90 677.22 198.71
  L 709.12 111.49
  A 0.96 0.96 0.0 0 1 710.02 110.86
  L 725.74 110.84
  Q 726.18 110.84 726.02 111.25
  Q 701.68 174.52 677.35 237.79
  C 673.53 247.72 668.86 256.24 657.91 259.49
  Q 649.08 262.12 639.73 259.97
  A 0.48 0.46 7.2 0 1 639.37 259.52
  L 639.38 244.75
  A 0.48 0.48 0.0 0 1 639.94 244.28
  Q 644.84 245.12 650.01 244.99
  C 654.35 244.88 657.74 238.50 659.63 234.28
  Q 663.65 225.35 666.92 216.10
  A 1.39 1.36 -47.3 0 0 666.89 215.10
  L 623.05 111.52
  A 0.48 0.47 -11.4 0 1 623.49 110.86
  L 640.80 110.87
  Q 641.08 110.87 641.19 111.14
  L 676.31 198.73
  Z"
/>
<path fill="#1f8ced" d="
  M 307.48 142.98
  Q 310.41 149.19 311.25 155.91
  A 0.30 0.30 0.0 0 1 310.95 156.25
  L 240.77 156.25
  Q 240.34 156.25 240.38 155.82
  C 242.13 136.87 256.10 122.57 275.45 122.42
  C 284.65 122.35 292.62 125.85 299.84 131.92
  Q 303.83 135.27 307.48 142.98
  Z"
/>
<ellipse fill="#1f8ced" cx="0.00" cy="0.00" transform="translate(461.53,163.46) rotate(90.6)" rx="38.98" ry="34.80"/>
</svg>
